<svg width="100" height="30" fill="none" xmlns="http://www.w3.org/2000/svg"><path d="M11.53 29.993c3.654 0 6.812-.987 9.473-2.963 2.66-1.975 4.555-4.804 5.684-8.486h-5.442c-.78 2.123-1.982 3.77-3.608 4.939-1.626 1.169-3.474 1.753-5.543 1.753-2.58 0-4.395-.934-5.443-2.801-1.048-1.868-1.21-4.522-.484-7.962.619-2.957 1.868-5.322 3.75-7.096 1.88-1.747 4.058-2.62 6.53-2.62 1.828 0 3.293.484 4.395 1.451 1.101.968 1.72 2.406 1.854 4.314h5.483c0-3.386-1.035-5.993-3.104-7.821C23.005.901 20.29 0 16.93 0 12.9 0 9.38 1.29 6.37 3.87 3.332 6.45 1.397 9.81.564 13.948c-1.075 5.08-.605 9.017 1.41 11.813 2.016 2.821 5.201 4.232 9.555 4.232Zm21.648-.645 2.62-12.255h13.344l-2.62 12.255h5.442L58.09.645H52.65l-2.46 11.53H36.847l2.46-11.53h-5.443l-6.128 28.703h5.443Z" fill="#fff"/><path fill-rule="evenodd" clip-rule="evenodd" d="m73.368 5.517-1.422 6.671h6.61l-1.052 4.918h-6.605l-1.42 6.67H64.56l1.418-6.671h-6.606l1.05-4.916 6.601-.001 1.42-6.671h4.924ZM94.302 5.517l-1.421 6.671h6.61l-1.053 4.918h-6.604l-1.42 6.67h-4.918l1.418-6.671h-6.606l1.05-4.916 6.6-.001 1.42-6.671h4.924Z" fill="#239FB9"/></svg>