<svg width="24" height="24" fill="none" xmlns="http://www.w3.org/2000/svg"><g clip-path="url(#a)" fill-rule="evenodd" clip-rule="evenodd" fill="#fff"><path d="M10.875 3.563a7.313 7.313 0 1 0 0 14.625 7.313 7.313 0 0 0 0-14.625Zm-8.438 7.312a8.438 8.438 0 1 1 16.876 0 8.438 8.438 0 0 1-16.875 0Z"/><path d="M16.046 16.046c.22-.22.576-.22.796 0l4.556 4.556a.562.562 0 1 1-.796.796l-4.556-4.556a.562.562 0 0 1 0-.796Z"/></g><defs><clipPath id="a"><path fill="#fff" d="M0 0h24v24H0z"/></clipPath></defs></svg>