<svg width="20" height="22" viewBox="0 0 20 22" fill="none" xmlns="http://www.w3.org/2000/svg">
<g clip-path="url(#clip0_717_81)">
<path d="M19.6905 4.66395C19.3859 2.40044 17.4132 0.616627 15.0746 0.270971C14.68 0.212564 13.1851 0 9.72219 0H9.69632C6.23245 0 5.48933 0.212564 5.09477 0.270971C2.82128 0.607051 0.745064 2.2099 0.241333 4.50021C-0.000955995 5.62816 -0.026813 6.87864 0.0181972 8.02573C0.0823606 9.67069 0.0948102 11.3128 0.244205 12.9511C0.347485 14.0393 0.527659 15.1189 0.783368 16.1817C1.2622 18.1445 3.20051 19.778 5.09955 20.4444C7.13275 21.1394 9.31931 21.2548 11.4144 20.7777C11.6449 20.724 11.8725 20.6618 12.0972 20.5909C12.6067 20.4291 13.2033 20.2481 13.6419 19.9303C13.6479 19.9258 13.6529 19.92 13.6563 19.9134C13.6598 19.9068 13.6618 19.8994 13.662 19.8919V18.3044C13.6619 18.2974 13.6602 18.2906 13.6571 18.2843C13.654 18.278 13.6495 18.2725 13.644 18.2682C13.6385 18.2639 13.6321 18.2609 13.6253 18.2594C13.6185 18.2578 13.6114 18.2579 13.6046 18.2594C12.2623 18.58 10.8868 18.7407 9.50672 18.7382C7.13171 18.7382 6.49296 17.6112 6.31003 17.142C6.16301 16.7365 6.06965 16.3136 6.03232 15.8839C6.03192 15.8767 6.03325 15.8695 6.03619 15.8629C6.03909 15.8562 6.04355 15.8504 6.04915 15.8459C6.05475 15.8413 6.06133 15.8381 6.0684 15.8366C6.07547 15.835 6.08277 15.8351 6.08979 15.837C7.40971 16.1554 8.76277 16.3161 10.1206 16.3157C10.4471 16.3157 10.7727 16.3157 11.0993 16.3071C12.4649 16.2688 13.9043 16.1989 15.2479 15.9366C15.2814 15.9298 15.3149 15.9241 15.3437 15.9155C17.463 15.5085 19.4798 14.2313 19.6847 10.9968C19.6924 10.8695 19.7116 9.66304 19.7116 9.53091C19.7125 9.08184 19.8562 6.34531 19.6905 4.66395Z" fill="url(#paint0_linear_717_81)"/>
<path d="M16.333 7.20686V12.8302H14.1045V7.37251C14.1045 6.22352 13.6257 5.63752 12.6518 5.63752C11.5811 5.63752 11.0448 6.33075 11.0448 7.69998V10.6874H8.82973V7.69998C8.82973 6.33075 8.29251 5.63752 7.22184 5.63752C6.25363 5.63752 5.77 6.22352 5.77 7.37251V12.8302H3.54248V7.20686C3.54248 6.05787 3.83584 5.14507 4.42259 4.46843C5.02781 3.79339 5.82173 3.44678 6.80715 3.44678C7.94773 3.44678 8.80963 3.88531 9.38424 4.76142L9.93872 5.69211L10.4942 4.76142C11.0687 3.88531 11.9306 3.44678 13.0693 3.44678C14.0538 3.44678 14.8477 3.79339 15.4549 4.46843C16.0409 5.14443 16.3337 6.05723 16.333 7.20686Z" fill="white"/>
</g>
<defs>
<linearGradient id="paint0_linear_717_81" x1="9.88512" y1="0" x2="9.88512" y2="21.0667" gradientUnits="userSpaceOnUse">
<stop stop-color="#6364FF"/>
<stop offset="1" stop-color="#563ACC"/>
</linearGradient>
<clipPath id="clip0_717_81">
<rect width="20" height="21.0667" fill="white"/>
</clipPath>
</defs>
</svg>
